{
    "asset" : {
        "generator" : "Khronos glTF Blender I/O v1.3.48",
        "version" : "2.0"
    },
    "scene" : 0,
    "scenes" : [
        {
            "name" : "Scene",
            "nodes" : [
                3
            ]
        }
    ],
    "nodes" : [
        {
            "mesh" : 0,
            "name" : "Mesh_0.001"
        },
        {
            "mesh" : 1,
            "name" : "Mesh_1.001"
        },
        {
            "mesh" : 2,
            "name" : "Mesh_2.001"
        },
        {
            "children" : [
                0,
                1,
                2
            ],
            "name" : "Node_3",
            "rotation" : [
                -0.7071067690849304,
                0,
                0,
                0.7071068286895752
            ],
            "scale" : [
                0.10000000149011612,
                0.10000000149011612,
                0.10000000149011612
            ],
            "translation" : [
                -84.99999237060547,
                0,
                85
            ]
        }
    ],
    "materials" : [
        {
            "doubleSided" : true,
            "emissiveFactor" : [
                1,
                1,
                1
            ],
            "emissiveTexture" : {
                "index" : 0,
                "texCoord" : 0
            },
            "name" : "Raven_sketchfablambert5SG.001",
            "normalTexture" : {
                "index" : 1,
                "texCoord" : 0
            },
            "pbrMetallicRoughness" : {
                "baseColorTexture" : {
                    "index" : 2,
                    "texCoord" : 0
                },
                "metallicRoughnessTexture" : {
                    "index" : 3,
                    "texCoord" : 0
                }
            }
        },
        {
            "alphaMode" : "BLEND",
            "doubleSided" : true,
            "emissiveFactor" : [
                0,
                0,
                0
            ],
            "name" : "Raven_sketchfablambert6SG.001",
            "normalTexture" : {
                "index" : 4,
                "texCoord" : 0
            },
            "pbrMetallicRoughness" : {
                "baseColorTexture" : {
                    "index" : 5,
                    "texCoord" : 0
                },
                "metallicRoughnessTexture" : {
                    "index" : 6,
                    "texCoord" : 0
                }
            }
        },
        {
            "alphaMode" : "BLEND",
            "doubleSided" : true,
            "emissiveFactor" : [
                1,
                1,
                1
            ],
            "emissiveTexture" : {
                "index" : 7,
                "texCoord" : 0
            },
            "name" : "Raven_sketchfablambert7SG.001",
            "pbrMetallicRoughness" : {
                "baseColorTexture" : {
                    "index" : 8,
                    "texCoord" : 0
                },
                "metallicFactor" : 0,
                "roughnessFactor" : 0.6000000238418579
            }
        }
    ],
    "meshes" : [
        {
            "name" : "Mesh_0.001",
            "primitives" : [
                {
                    "attributes" : {
                        "POSITION" : 0,
                        "NORMAL" : 1,
                        "TEXCOORD_0" : 2
                    },
                    "indices" : 3,
                    "material" : 0
                }
            ]
        },
        {
            "name" : "Mesh_1.001",
            "primitives" : [
                {
                    "attributes" : {
                        "POSITION" : 4,
                        "NORMAL" : 5,
                        "TEXCOORD_0" : 6
                    },
                    "indices" : 7,
                    "material" : 1
                }
            ]
        },
        {
            "name" : "Mesh_2.001",
            "primitives" : [
                {
                    "attributes" : {
                        "POSITION" : 8,
                        "NORMAL" : 9,
                        "TEXCOORD_0" : 10
                    },
                    "indices" : 11,
                    "material" : 2
                }
            ]
        }
    ],
    "textures" : [
        {
            "source" : 0
        },
        {
            "source" : 1
        },
        {
            "source" : 2
        },
        {
            "source" : 3
        },
        {
            "source" : 4
        },
        {
            "source" : 5
        },
        {
            "source" : 6
        },
        {
            "source" : 7
        },
        {
            "source" : 8
        }
    ],
    "images" : [
        {
            "mimeType" : "image/png",
            "name" : "Raven_sketchfablambert5SG_emissive",
            "uri" : "textures/Raven_sketchfablambert5SG_emissive.png"
        },
        {
            "mimeType" : "image/png",
            "name" : "Raven_sketchfablambert5SG_normal",
            "uri" : "textures/Raven_sketchfablambert5SG_normal.png"
        },
        {
            "mimeType" : "image/png",
            "name" : "Raven_sketchfablambert5SG_baseColor",
            "uri" : "textures/Raven_sketchfablambert5SG_baseColor.png"
        },
        {
            "mimeType" : "image/png",
            "name" : "Raven_sketchfablambert5SG_metallicRoughness",
            "uri" : "textures/Raven_sketchfablambert5SG_metallicRoughness.png"
        },
        {
            "mimeType" : "image/png",
            "name" : "Raven_sketchfablambert6SG_normal",
            "uri" : "textures/Raven_sketchfablambert6SG_normal.png"
        },
        {
            "mimeType" : "image/png",
            "name" : "Raven_sketchfablambert6SG_baseColor",
            "uri" : "textures/Raven_sketchfablambert6SG_baseColor.png"
        },
        {
            "mimeType" : "image/png",
            "name" : "Raven_sketchfablambert6SG_metallicRoughness",
            "uri" : "textures/Raven_sketchfablambert6SG_metallicRoughness.png"
        },
        {
            "mimeType" : "image/png",
            "name" : "Raven_sketchfablambert7SG_emissive",
            "uri" : "textures/Raven_sketchfablambert7SG_emissive.png"
        },
        {
            "mimeType" : "image/png",
            "name" : "Raven_sketchfablambert7SG_baseColor",
            "uri" : "textures/Raven_sketchfablambert7SG_baseColor.png"
        }
    ],
    "accessors" : [
        {
            "bufferView" : 0,
            "componentType" : 5126,
            "count" : 6855,
            "max" : [
                1699.321044921875,
                1561.07080078125,
                702.656494140625
            ],
            "min" : [
                0,
                0,
                0
            ],
            "type" : "VEC3"
        },
        {
            "bufferView" : 1,
            "componentType" : 5126,
            "count" : 6855,
            "type" : "VEC3"
        },
        {
            "bufferView" : 2,
            "componentType" : 5126,
            "count" : 6855,
            "type" : "VEC2"
        },
        {
            "bufferView" : 3,
            "componentType" : 5123,
            "count" : 15666,
            "type" : "SCALAR"
        },
        {
            "bufferView" : 4,
            "componentType" : 5126,
            "count" : 110,
            "max" : [
                907.6152954101562,
                946.8328857421875,
                550.151123046875
            ],
            "min" : [
                789.6322631835938,
                697.099609375,
                472.8746643066406
            ],
            "type" : "VEC3"
        },
        {
            "bufferView" : 5,
            "componentType" : 5126,
            "count" : 110,
            "type" : "VEC3"
        },
        {
            "bufferView" : 6,
            "componentType" : 5126,
            "count" : 110,
            "type" : "VEC2"
        },
        {
            "bufferView" : 7,
            "componentType" : 5123,
            "count" : 144,
            "type" : "SCALAR"
        },
        {
            "bufferView" : 8,
            "componentType" : 5126,
            "count" : 8,
            "max" : [
                900.8202514648438,
                790.427001953125,
                505.6753234863281
            ],
            "min" : [
                798.5007934570312,
                768.1554565429688,
                459.11834716796875
            ],
            "type" : "VEC3"
        },
        {
            "bufferView" : 9,
            "componentType" : 5126,
            "count" : 8,
            "type" : "VEC3"
        },
        {
            "bufferView" : 10,
            "componentType" : 5126,
            "count" : 8,
            "type" : "VEC2"
        },
        {
            "bufferView" : 11,
            "componentType" : 5123,
            "count" : 18,
            "type" : "SCALAR"
        }
    ],
    "bufferViews" : [
        {
            "buffer" : 0,
            "byteLength" : 82260,
            "byteOffset" : 0
        },
        {
            "buffer" : 0,
            "byteLength" : 82260,
            "byteOffset" : 82260
        },
        {
            "buffer" : 0,
            "byteLength" : 54840,
            "byteOffset" : 164520
        },
        {
            "buffer" : 0,
            "byteLength" : 31332,
            "byteOffset" : 219360
        },
        {
            "buffer" : 0,
            "byteLength" : 1320,
            "byteOffset" : 250692
        },
        {
            "buffer" : 0,
            "byteLength" : 1320,
            "byteOffset" : 252012
        },
        {
            "buffer" : 0,
            "byteLength" : 880,
            "byteOffset" : 253332
        },
        {
            "buffer" : 0,
            "byteLength" : 288,
            "byteOffset" : 254212
        },
        {
            "buffer" : 0,
            "byteLength" : 96,
            "byteOffset" : 254500
        },
        {
            "buffer" : 0,
            "byteLength" : 96,
            "byteOffset" : 254596
        },
        {
            "buffer" : 0,
            "byteLength" : 64,
            "byteOffset" : 254692
        },
        {
            "buffer" : 0,
            "byteLength" : 36,
            "byteOffset" : 254756
        }
    ],
    "buffers" : [
        {
            "byteLength" : 254792,
            "uri" : "ship.bin"
        }
    ]
}
