{
    "asset" : {
        "generator" : "Khronos glTF Blender I/O v1.3.48",
        "version" : "2.0"
    },
    "scene" : 0,
    "scenes" : [
        {
            "name" : "Scene",
            "nodes" : [
                0
            ]
        }
    ],
    "nodes" : [
        {
            "mesh" : 0,
            "name" : "Mesh_0.001",
            "rotation" : [
                -0.7071067094802856,
                0,
                0,
                0.7071067690849304
            ],
            "scale" : [
                0.10000000149011612,
                0.10000000149011612,
                0.10000000149011612
            ]
        }
    ],
    "materials" : [
        {
            "doubleSided" : true,
            "emissiveFactor" : [
                1,
                1,
                1
            ],
            "emissiveTexture" : {
                "index" : 0,
                "texCoord" : 0
            },
            "name" : "Raven_sketchfablambert5SG.001",
            "normalTexture" : {
                "index" : 1,
                "texCoord" : 0
            },
            "pbrMetallicRoughness" : {
                "baseColorTexture" : {
                    "index" : 2,
                    "texCoord" : 0
                },
                "metallicRoughnessTexture" : {
                    "index" : 3,
                    "texCoord" : 0
                }
            }
        }
    ],
    "meshes" : [
        {
            "name" : "Mesh_0.001",
            "primitives" : [
                {
                    "attributes" : {
                        "POSITION" : 0,
                        "NORMAL" : 1,
                        "TEXCOORD_0" : 2
                    },
                    "indices" : 3,
                    "material" : 0
                }
            ]
        }
    ],
    "textures" : [
        {
            "source" : 0
        },
        {
            "source" : 1
        },
        {
            "source" : 2
        },
        {
            "source" : 3
        }
    ],
    "images" : [
        {
            "mimeType" : "image/png",
            "name" : "Raven_sketchfablambert5SG_emissive",
            "uri" : "textures/Raven_sketchfablambert5SG_emissive.png"
        },
        {
            "mimeType" : "image/png",
            "name" : "Raven_sketchfablambert5SG_normal",
            "uri" : "textures/Raven_sketchfablambert5SG_normal.png"
        },
        {
            "mimeType" : "image/png",
            "name" : "Raven_sketchfablambert5SG_baseColor",
            "uri" : "textures/Raven_sketchfablambert5SG_baseColor.png"
        },
        {
            "mimeType" : "image/png",
            "name" : "Raven_sketchfablambert5SG_metallicRoughness",
            "uri" : "textures/Raven_sketchfablambert5SG_metallicRoughness.png"
        }
    ],
    "accessors" : [
        {
            "bufferView" : 0,
            "componentType" : 5126,
            "count" : 6827,
            "max" : [
                849.6632690429688,
                574.2902221679688,
                350.2388000488281
            ],
            "min" : [
                -849.6577758789062,
                -986.7805786132812,
                -352.4176940917969
            ],
            "type" : "VEC3"
        },
        {
            "bufferView" : 1,
            "componentType" : 5126,
            "count" : 6827,
            "type" : "VEC3"
        },
        {
            "bufferView" : 2,
            "componentType" : 5126,
            "count" : 6827,
            "type" : "VEC2"
        },
        {
            "bufferView" : 3,
            "componentType" : 5123,
            "count" : 15666,
            "type" : "SCALAR"
        }
    ],
    "bufferViews" : [
        {
            "buffer" : 0,
            "byteLength" : 81924,
            "byteOffset" : 0
        },
        {
            "buffer" : 0,
            "byteLength" : 81924,
            "byteOffset" : 81924
        },
        {
            "buffer" : 0,
            "byteLength" : 54616,
            "byteOffset" : 163848
        },
        {
            "buffer" : 0,
            "byteLength" : 31332,
            "byteOffset" : 218464
        }
    ],
    "buffers" : [
        {
            "byteLength" : 249796,
            "uri" : "ship.bin"
        }
    ]
}
